<svg viewBox="0 0 400 200" xmlns="http://www.w3.org/2000/svg">
  <defs>
    <linearGradient id="buildingGrad3" x1="0%" y1="0%" x2="100%" y2="100%">
      <stop offset="0%" style="stop-color:#fef3c7;stop-opacity:1" />
      <stop offset="100%" style="stop-color:#fbbf24;stop-opacity:1" />
    </linearGradient>
    <linearGradient id="skyGrad3" x1="0%" y1="0%" x2="100%" y2="100%">
      <stop offset="0%" style="stop-color:#f59e0b;stop-opacity:1" />
      <stop offset="100%" style="stop-color:#d97706;stop-opacity:1" />
    </linearGradient>
  </defs>
  
  <!-- Sky Background -->
  <rect width="400" height="200" fill="url(#skyGrad3)"/>
  
  <!-- Main Building -->
  <rect x="70" y="80" width="260" height="120" fill="url(#buildingGrad3)" rx="6"/>
  
  <!-- Windows Layout -->
  <rect x="90" y="100" width="18" height="22" fill="#f59e0b" opacity="0.8"/>
  <rect x="120" y="100" width="18" height="22" fill="#3b82f6" opacity="0.8"/>
  <rect x="150" y="100" width="18" height="22" fill="#10b981" opacity="0.8"/>
  <rect x="180" y="100" width="18" height="22" fill="#ef4444" opacity="0.8"/>
  <rect x="210" y="100" width="18" height="22" fill="#8b5cf6" opacity="0.8"/>
  <rect x="240" y="100" width="18" height="22" fill="#06b6d4" opacity="0.8"/>
  <rect x="270" y="100" width="18" height="22" fill="#84cc16" opacity="0.8"/>
  <rect x="300" y="100" width="18" height="22" fill="#f97316" opacity="0.8"/>
  
  <rect x="90" y="135" width="18" height="22" fill="#84cc16" opacity="0.8"/>
  <rect x="120" y="135" width="18" height="22" fill="#f59e0b" opacity="0.8"/>
  <rect x="150" y="135" width="18" height="22" fill="#8b5cf6" opacity="0.8"/>
  <rect x="180" y="135" width="18" height="22" fill="#10b981" opacity="0.8"/>
  <rect x="210" y="135" width="18" height="22" fill="#3b82f6" opacity="0.8"/>
  <rect x="240" y="135" width="18" height="22" fill="#ef4444" opacity="0.8"/>
  <rect x="270" y="135" width="18" height="22" fill="#06b6d4" opacity="0.8"/>
  <rect x="300" y="135" width="18" height="22" fill="#f97316" opacity="0.8"/>
  
  <!-- Entrance -->
  <rect x="185" y="170" width="30" height="30" fill="#1f2937" rx="6"/>
  <rect x="190" y="175" width="20" height="20" fill="#f59e0b" opacity="0.7"/>
  
  <!-- Branch Sign -->
  <rect x="140" y="55" width="120" height="18" fill="#d97706" rx="3"/>
  <text x="200" y="67" text-anchor="middle" fill="white" font-size="9" font-weight="bold">SYLHET BRANCH</text>
  
  <!-- Decorative Elements -->
  <circle cx="100" cy="35" r="6" fill="#ffffff" opacity="0.4"/>
  <circle cx="300" cy="40" r="4" fill="#ffffff" opacity="0.2"/>
  
  <!-- Ground -->
  <rect x="0" y="190" width="400" height="10" fill="#374151"/>
</svg>