<svg viewBox="0 0 400 200" xmlns="http://www.w3.org/2000/svg">
  <defs>
    <linearGradient id="buildingGrad2" x1="0%" y1="0%" x2="100%" y2="100%">
      <stop offset="0%" style="stop-color:#f1f5f9;stop-opacity:1" />
      <stop offset="100%" style="stop-color:#cbd5e1;stop-opacity:1" />
    </linearGradient>
    <linearGradient id="skyGrad2" x1="0%" y1="0%" x2="100%" y2="100%">
      <stop offset="0%" style="stop-color:#10b981;stop-opacity:1" />
      <stop offset="100%" style="stop-color:#059669;stop-opacity:1" />
    </linearGradient>
  </defs>
  
  <!-- Sky Background -->
  <rect width="400" height="200" fill="url(#skyGrad2)"/>
  
  <!-- Main Building -->
  <rect x="60" y="70" width="280" height="130" fill="url(#buildingGrad2)" rx="8"/>
  
  <!-- Windows Pattern -->
  <rect x="80" y="90" width="20" height="25" fill="#10b981" opacity="0.7"/>
  <rect x="115" y="90" width="20" height="25" fill="#3b82f6" opacity="0.7"/>
  <rect x="150" y="90" width="20" height="25" fill="#f59e0b" opacity="0.7"/>
  <rect x="185" y="90" width="20" height="25" fill="#ef4444" opacity="0.7"/>
  <rect x="220" y="90" width="20" height="25" fill="#8b5cf6" opacity="0.7"/>
  <rect x="255" y="90" width="20" height="25" fill="#06b6d4" opacity="0.7"/>
  <rect x="290" y="90" width="20" height="25" fill="#84cc16" opacity="0.7"/>
  
  <rect x="80" y="130" width="20" height="25" fill="#8b5cf6" opacity="0.7"/>
  <rect x="115" y="130" width="20" height="25" fill="#10b981" opacity="0.7"/>
  <rect x="150" y="130" width="20" height="25" fill="#ef4444" opacity="0.7"/>
  <rect x="185" y="130" width="20" height="25" fill="#3b82f6" opacity="0.7"/>
  <rect x="220" y="130" width="20" height="25" fill="#f59e0b" opacity="0.7"/>
  <rect x="255" y="130" width="20" height="25" fill="#84cc16" opacity="0.7"/>
  <rect x="290" y="130" width="20" height="25" fill="#06b6d4" opacity="0.7"/>
  
  <!-- Entrance -->
  <rect x="175" y="165" width="50" height="35" fill="#1f2937" rx="8"/>
  <rect x="180" y="170" width="40" height="25" fill="#10b981" opacity="0.6"/>
  
  <!-- Branch Sign -->
  <rect x="130" y="45" width="140" height="20" fill="#059669" rx="4"/>
  <text x="200" y="58" text-anchor="middle" fill="white" font-size="10" font-weight="bold">CHITTAGONG BRANCH</text>
  
  <!-- Decorative Elements -->
  <circle cx="90" cy="25" r="7" fill="#ffffff" opacity="0.5"/>
  <circle cx="310" cy="30" r="5" fill="#ffffff" opacity="0.3"/>
  
  <!-- Ground -->
  <rect x="0" y="190" width="400" height="10" fill="#374151"/>
</svg>