<svg viewBox="0 0 400 400" xmlns="http://www.w3.org/2000/svg">
  <defs>
    <linearGradient id="bgGradient2" x1="0%" y1="0%" x2="100%" y2="100%">
      <stop offset="0%" style="stop-color:#FEF7FF;stop-opacity:1" />
      <stop offset="100%" style="stop-color:#F3E8FF;stop-opacity:1" />
    </linearGradient>
    <linearGradient id="blazerGradient" x1="0%" y1="0%" x2="0%" y2="100%">
      <stop offset="0%" style="stop-color:#7C3AED;stop-opacity:1" />
      <stop offset="100%" style="stop-color:#5B21B6;stop-opacity:1" />
    </linearGradient>
  </defs>
  
  <!-- Background -->
  <rect width="400" height="400" fill="url(#bgGradient2)"/>
  
  <!-- Modern Office Background -->
  <rect x="0" y="320" width="400" height="80" fill="#F3E8FF"/>
  <rect x="300" y="200" width="70" height="200" fill="#DDD6FE" rx="4"/>
  <rect x="30" y="250" width="50" height="150" fill="#DDD6FE" rx="4"/>
  
  <!-- Office Elements -->
  <rect x="310" y="220" width="10" height="12" fill="#8B5CF6" rx="1"/>
  <rect x="325" y="220" width="10" height="12" fill="#8B5CF6" rx="1"/>
  <rect x="340" y="220" width="10" height="12" fill="#8B5CF6" rx="1"/>
  
  <!-- Professional Woman -->
  <!-- Head -->
  <circle cx="200" cy="140" r="42" fill="#F7E6D3"/>
  
  <!-- Hair (longer style) -->
  <path d="M158 120 Q200 90 242 120 Q240 140 220 160 Q200 170 180 160 Q160 140 158 120" fill="#8B4513"/>
  
  <!-- Eyes -->
  <circle cx="188" cy="135" r="3" fill="#2D3748"/>
  <circle cx="212" cy="135" r="3" fill="#2D3748"/>
  
  <!-- Eyelashes -->
  <path d="M185 132 L185 130" stroke="#2D3748" stroke-width="1"/>
  <path d="M215 132 L215 130" stroke="#2D3748" stroke-width="1"/>
  
  <!-- Nose -->
  <ellipse cx="200" cy="145" rx="2" ry="3" fill="#E8D5B7"/>
  
  <!-- Lips -->
  <ellipse cx="200" cy="155" rx="4" ry="2" fill="#DC2626"/>
  
  <!-- Professional Blazer -->
  <rect x="165" y="182" width="70" height="110" fill="url(#blazerGradient)" rx="6"/>
  
  <!-- Blouse -->
  <rect x="180" y="190" width="40" height="100" fill="#FFFFFF" rx="3"/>
  
  <!-- Blazer Details -->
  <path d="M165 190 L185 210 L180 230 L165 225 Z" fill="url(#blazerGradient)"/>
  <path d="M235 190 L215 210 L220 230 L235 225 Z" fill="url(#blazerGradient)"/>
  
  <!-- Arms -->
  <rect x="125" y="210" width="40" height="75" fill="url(#blazerGradient)" rx="20"/>
  <rect x="235" y="210" width="40" height="75" fill="url(#blazerGradient)" rx="20"/>
  
  <!-- Hands -->
  <circle cx="145" cy="285" r="11" fill="#F7E6D3"/>
  <circle cx="255" cy="285" r="11" fill="#F7E6D3"/>
  
  <!-- Professional Accessories -->
  <!-- Laptop -->
  <rect x="280" y="300" width="35" height="25" fill="#374151" rx="2"/>
  <rect x="282" y="302" width="31" height="18" fill="#1F2937" rx="1"/>
  
  <!-- Documents -->
  <rect x="100" y="320" width="25" height="35" fill="white" stroke="#E5E7EB" stroke-width="1" rx="2"/>
  <line x1="105" y1="330" x2="120" y2="330" stroke="#6B7280" stroke-width="1"/>
  <line x1="105" y1="340" x2="120" y2="340" stroke="#6B7280" stroke-width="1"/>
  
  <!-- Achievement Star -->
  <polygon points="350,80 355,90 365,90 357,97 360,107 350,102 340,107 343,97 335,90 345,90" fill="#F59E0B"/>
  
  <!-- Professional Badge -->
  <circle cx="60" cy="100" r="15" fill="#8B5CF6"/>
  <rect x="55" y="95" width="10" height="10" fill="white" rx="1"/>
  
  <!-- Decorative Elements -->
  <circle cx="320" cy="50" r="2" fill="#8B5CF6" opacity="0.6"/>
  <circle cx="80" cy="180" r="3" fill="#F59E0B" opacity="0.7"/>
  <circle cx="350" cy="150" r="2" fill="#10B981" opacity="0.8"/>
</svg>