<svg viewBox="0 0 400 400" xmlns="http://www.w3.org/2000/svg">
  <defs>
    <linearGradient id="bgGradient3" x1="0%" y1="0%" x2="100%" y2="100%">
      <stop offset="0%" style="stop-color:#F0FDF4;stop-opacity:1" />
      <stop offset="100%" style="stop-color:#DCFCE7;stop-opacity:1" />
    </linearGradient>
    <linearGradient id="jacketGradient" x1="0%" y1="0%" x2="0%" y2="100%">
      <stop offset="0%" style="stop-color:#059669;stop-opacity:1" />
      <stop offset="100%" style="stop-color:#047857;stop-opacity:1" />
    </linearGradient>
  </defs>
  
  <!-- Background -->
  <rect width="400" height="400" fill="url(#bgGradient3)"/>
  
  <!-- Modern Office Background -->
  <rect x="0" y="310" width="400" height="90" fill="#DCFCE7"/>
  <rect x="320" y="180" width="60" height="220" fill="#BBF7D0" rx="4"/>
  <rect x="20" y="240" width="45" height="160" fill="#BBF7D0" rx="4"/>
  
  <!-- Office Windows -->
  <rect x="330" y="200" width="8" height="10" fill="#10B981" rx="1"/>
  <rect x="345" y="200" width="8" height="10" fill="#10B981" rx="1"/>
  <rect x="360" y="200" width="8" height="10" fill="#10B981" rx="1"/>
  
  <!-- Professional Person -->
  <!-- Head -->
  <circle cx="200" cy="145" r="40" fill="#DEB887"/>
  
  <!-- Hair -->
  <path d="M160 125 Q200 95 240 125 Q235 115 200 110 Q165 115 160 125" fill="#2F4F4F"/>
  
  <!-- Eyes -->
  <circle cx="190" cy="140" r="3" fill="#2D3748"/>
  <circle cx="210" cy="140" r="3" fill="#2D3748"/>
  
  <!-- Glasses -->
  <circle cx="190" cy="140" r="8" fill="none" stroke="#374151" stroke-width="2"/>
  <circle cx="210" cy="140" r="8" fill="none" stroke="#374151" stroke-width="2"/>
  <line x1="198" y1="140" x2="202" y2="140" stroke="#374151" stroke-width="2"/>
  
  <!-- Nose -->
  <ellipse cx="200" cy="150" rx="2" ry="3" fill="#CD853F"/>
  
  <!-- Mouth -->
  <path d="M195 160 Q200 165 205 160" stroke="#2D3748" stroke-width="2" fill="none"/>
  
  <!-- Professional Jacket -->
  <rect x="170" y="185" width="60" height="105" fill="url(#jacketGradient)" rx="6"/>
  
  <!-- Shirt -->
  <rect x="185" y="195" width="30" height="95" fill="#FFFFFF" rx="3"/>
  
  <!-- Tie -->
  <rect x="195" y="195" width="10" height="70" fill="#1E40AF" rx="2"/>
  <polygon points="195,265 200,275 205,265" fill="#1E40AF"/>
  
  <!-- Jacket Lapels -->
  <path d="M170 195 L185 210 L185 225 L170 220 Z" fill="url(#jacketGradient)"/>
  <path d="M230 195 L215 210 L215 225 L230 220 Z" fill="url(#jacketGradient)"/>
  
  <!-- Arms -->
  <rect x="135" y="215" width="35" height="70" fill="url(#jacketGradient)" rx="17"/>
  <rect x="230" y="215" width="35" height="70" fill="url(#jacketGradient)" rx="17"/>
  
  <!-- Hands -->
  <circle cx="152" cy="285" r="10" fill="#DEB887"/>
  <circle cx="248" cy="285" r="10" fill="#DEB887"/>
  
  <!-- Professional Items -->
  <!-- Calculator -->
  <rect x="280" y="320" width="25" height="35" fill="#374151" rx="2"/>
  <rect x="285" y="325" width="15" height="20" fill="#1F2937" rx="1"/>
  <circle cx="290" cy="350" r="2" fill="#10B981"/>
  <circle cx="295" cy="350" r="2" fill="#10B981"/>
  
  <!-- Files -->
  <rect x="90" y="310" width="20" height="30" fill="white" stroke="#E5E7EB" stroke-width="1" rx="2"/>
  <rect x="95" y="305" width="20" height="30" fill="#F3F4F6" stroke="#E5E7EB" stroke-width="1" rx="2"/>
  
  <!-- Success Medal -->
  <circle cx="70" cy="80" r="18" fill="#F59E0B"/>
  <polygon points="70,70 75,80 85,80 77,87 80,97 70,92 60,97 63,87 55,80 65,80" fill="#FFFFFF"/>
  
  <!-- Professional Certificate -->
  <rect x="320" y="60" width="30" height="40" fill="white" stroke="#10B981" stroke-width="2" rx="2"/>
  <circle cx="335" cy="80" r="6" fill="#10B981"/>
  
  <!-- Decorative Elements -->
  <circle cx="100" cy="50" r="2" fill="#10B981" opacity="0.6"/>
  <circle cx="300" cy="120" r="3" fill="#F59E0B" opacity="0.7"/>
  <circle cx="50" cy="180" r="2" fill="#3B82F6" opacity="0.8"/>
</svg>