<svg width="1200" height="800" viewBox="0 0 1200 800" xmlns="http://www.w3.org/2000/svg">
  <defs>
    <linearGradient id="bgGradient" x1="0%" y1="0%" x2="100%" y2="100%">
      <stop offset="0%" style="stop-color:#f8fafc;stop-opacity:1" />
      <stop offset="50%" style="stop-color:#e2e8f0;stop-opacity:1" />
      <stop offset="100%" style="stop-color:#cbd5e1;stop-opacity:1" />
    </linearGradient>
    
    <pattern id="gridPattern" x="0" y="0" width="40" height="40" patternUnits="userSpaceOnUse">
      <path d="M 40 0 L 0 0 0 40" fill="none" stroke="#e2e8f0" stroke-width="1" opacity="0.3"/>
    </pattern>
    
    <filter id="shadow" x="-50%" y="-50%" width="200%" height="200%">
      <feDropShadow dx="2" dy="2" stdDeviation="3" flood-color="#64748b" flood-opacity="0.1"/>
    </filter>
  </defs>
  
  <!-- Background -->
  <rect width="1200" height="800" fill="url(#bgGradient)"/>
  
  <!-- Grid Pattern -->
  <rect width="1200" height="800" fill="url(#gridPattern)" opacity="0.5"/>
  
  <!-- Geometric Shapes -->
  <g opacity="0.1">
    <!-- Large Circle -->
    <circle cx="200" cy="150" r="80" fill="#3b82f6"/>
    
    <!-- Medium Circles -->
    <circle cx="1000" cy="200" r="60" fill="#059669"/>
    <circle cx="150" cy="600" r="50" fill="#dc2626"/>
    
    <!-- Rectangles -->
    <rect x="800" y="500" width="120" height="80" fill="#7c3aed" rx="10"/>
    <rect x="50" y="350" width="100" height="60" fill="#f59e0b" rx="8"/>
    
    <!-- Triangles -->
    <polygon points="1100,600 1150,700 1050,700" fill="#06b6d4"/>
    <polygon points="300,50 350,120 250,120" fill="#8b5cf6"/>
  </g>
  
  <!-- Professional Elements -->
  <g opacity="0.08">
    <!-- Building Silhouettes -->
    <rect x="900" y="600" width="40" height="200" fill="#1f2937"/>
    <rect x="950" y="550" width="35" height="250" fill="#374151"/>
    <rect x="990" y="580" width="30" height="220" fill="#4b5563"/>
    <rect x="1025" y="620" width="25" height="180" fill="#6b7280"/>
    
    <!-- Document Icons -->
    <g transform="translate(100, 100)">
      <rect x="0" y="0" width="30" height="40" fill="#ffffff" rx="2" filter="url(#shadow)"/>
      <rect x="3" y="5" width="24" height="2" fill="#1f2937" rx="1"/>
      <rect x="3" y="10" width="20" height="1" fill="#6b7280" rx="0.5"/>
      <rect x="3" y="13" width="22" height="1" fill="#6b7280" rx="0.5"/>
      <rect x="3" y="16" width="18" height="1" fill="#6b7280" rx="0.5"/>
    </g>
    
    <g transform="translate(500, 300)">
      <rect x="0" y="0" width="25" height="35" fill="#ffffff" rx="2" filter="url(#shadow)"/>
      <rect x="2" y="4" width="21" height="2" fill="#1f2937" rx="1"/>
      <rect x="2" y="8" width="17" height="1" fill="#6b7280" rx="0.5"/>
      <rect x="2" y="11" width="19" height="1" fill="#6b7280" rx="0.5"/>
      <rect x="2" y="14" width="15" height="1" fill="#6b7280" rx="0.5"/>
    </g>
  </g>
  
  <!-- Subtle Accent Lines -->
  <g opacity="0.2">
    <path d="M0 200 Q300 180 600 200 T1200 200" stroke="#3b82f6" stroke-width="2" fill="none"/>
    <path d="M0 400 Q400 380 800 400 T1200 400" stroke="#059669" stroke-width="1.5" fill="none"/>
    <path d="M0 600 Q200 580 400 600 T1200 600" stroke="#f59e0b" stroke-width="1" fill="none"/>
  </g>
  
  <!-- Corner Decorations -->
  <g opacity="0.1">
    <!-- Top Left -->
    <path d="M0 0 L100 0 L0 100 Z" fill="#3b82f6"/>
    
    <!-- Top Right -->
    <path d="M1200 0 L1100 0 L1200 100 Z" fill="#059669"/>
    
    <!-- Bottom Left -->
    <path d="M0 800 L100 800 L0 700 Z" fill="#f59e0b"/>
    
    <!-- Bottom Right -->
    <path d="M1200 800 L1100 800 L1200 700 Z" fill="#dc2626"/>
  </g>
  
</svg>