<svg width="1200" height="600" viewBox="0 0 1200 600" xmlns="http://www.w3.org/2000/svg">
  <defs>
    <linearGradient id="heroGradient" x1="0%" y1="0%" x2="100%" y2="100%">
      <stop offset="0%" style="stop-color:#1e40af;stop-opacity:1" />
      <stop offset="50%" style="stop-color:#3b82f6;stop-opacity:1" />
      <stop offset="100%" style="stop-color:#60a5fa;stop-opacity:1" />
    </linearGradient>
    <linearGradient id="buildingGradient" x1="0%" y1="0%" x2="0%" y2="100%">
      <stop offset="0%" style="stop-color:#f3f4f6;stop-opacity:1" />
      <stop offset="100%" style="stop-color:#e5e7eb;stop-opacity:1" />
    </linearGradient>
  </defs>
  
  <!-- Background -->
  <rect width="1200" height="600" fill="url(#heroGradient)"/>
  
  <!-- German Flag Colors Accent -->
  <rect x="0" y="0" width="1200" height="8" fill="#000000"/>
  <rect x="0" y="8" width="1200" height="8" fill="#dd0000"/>
  <rect x="0" y="16" width="1200" height="8" fill="#ffce00"/>
  
  <!-- Bangladesh Flag Colors Accent -->
  <rect x="0" y="576" width="1200" height="8" fill="#006a4e"/>
  <rect x="0" y="584" width="1200" height="8" fill="#f42a41"/>
  <rect x="0" y="592" width="1200" height="8" fill="#006a4e"/>
  
  <!-- Modern Buildings Silhouette -->
  <g transform="translate(800, 200)">
    <!-- Building 1 -->
    <rect x="0" y="100" width="80" height="280" fill="url(#buildingGradient)" opacity="0.8"/>
    <rect x="10" y="110" width="12" height="15" fill="#fbbf24" opacity="0.7"/>
    <rect x="30" y="120" width="12" height="15" fill="#fbbf24" opacity="0.7"/>
    <rect x="50" y="115" width="12" height="15" fill="#fbbf24" opacity="0.7"/>
    
    <!-- Building 2 -->
    <rect x="90" y="80" width="70" height="300" fill="url(#buildingGradient)" opacity="0.9"/>
    <rect x="100" y="90" width="10" height="12" fill="#fbbf24" opacity="0.7"/>
    <rect x="120" y="100" width="10" height="12" fill="#fbbf24" opacity="0.7"/>
    <rect x="140" y="95" width="10" height="12" fill="#fbbf24" opacity="0.7"/>
    
    <!-- Building 3 -->
    <rect x="170" y="120" width="60" height="260" fill="url(#buildingGradient)" opacity="0.7"/>
    <rect x="180" y="130" width="8" height="10" fill="#fbbf24" opacity="0.7"/>
    <rect x="200" y="140" width="8" height="10" fill="#fbbf24" opacity="0.7"/>
  </g>
  
  <!-- Professional Consultation Scene -->
  <g transform="translate(100, 200)">
    <!-- Desk -->
    <rect x="0" y="180" width="200" height="80" fill="#8b5cf6" opacity="0.8" rx="8"/>
    
    <!-- Documents -->
    <rect x="20" y="160" width="40" height="30" fill="#ffffff" opacity="0.9" rx="2"/>
    <rect x="70" y="165" width="35" height="25" fill="#ffffff" opacity="0.9" rx="2"/>
    <rect x="115" y="162" width="38" height="28" fill="#ffffff" opacity="0.9" rx="2"/>
    
    <!-- Laptop -->
    <rect x="140" y="170" width="50" height="30" fill="#374151" rx="3"/>
    <rect x="142" y="172" width="46" height="26" fill="#1f2937" rx="2"/>
    
    <!-- Professional Figure -->
    <circle cx="250" cy="120" r="25" fill="#fbbf24" opacity="0.8"/>
    <rect x="235" y="145" width="30" height="60" fill="#1e40af" opacity="0.8" rx="15"/>
    <rect x="225" y="160" width="15" height="40" fill="#1e40af" opacity="0.8" rx="7"/>
    <rect x="260" y="160" width="15" height="40" fill="#1e40af" opacity="0.8" rx="7"/>
  </g>
  
  <!-- Decorative Elements -->
  <circle cx="950" cy="100" r="40" fill="#fbbf24" opacity="0.3"/>
  <circle cx="1050" cy="150" r="25" fill="#10b981" opacity="0.3"/>
  <circle cx="150" cy="80" r="30" fill="#ef4444" opacity="0.3"/>
  
  <!-- Success Icons -->
  <g transform="translate(400, 100)">
    <!-- Graduation Cap -->
    <path d="M20 20 L40 15 L60 20 L60 25 L40 30 L20 25 Z" fill="#10b981" opacity="0.7"/>
    <rect x="38" y="12" width="4" height="8" fill="#10b981" opacity="0.7"/>
    
    <!-- Briefcase -->
    <g transform="translate(80, 0)">
      <rect x="15" y="20" width="30" height="20" fill="#8b5cf6" opacity="0.7" rx="2"/>
      <rect x="25" y="18" width="10" height="4" fill="#8b5cf6" opacity="0.7" rx="1"/>
    </g>
    
    <!-- Passport -->
    <g transform="translate(140, 0)">
      <rect x="15" y="18" width="20" height="25" fill="#dc2626" opacity="0.7" rx="2"/>
      <rect x="17" y="22" width="16" height="2" fill="#ffffff" opacity="0.8"/>
      <rect x="17" y="26" width="12" height="1" fill="#ffffff" opacity="0.8"/>
    </g>
  </g>
  
  <!-- Text Overlay Area -->
  <rect x="50" y="400" width="500" height="150" fill="rgba(255,255,255,0.1)" rx="12"/>
  
</svg>