<svg viewBox="0 0 1200 600" xmlns="http://www.w3.org/2000/svg">
  <defs>
    <linearGradient id="heroGradient" x1="0%" y1="0%" x2="100%" y2="100%">
      <stop offset="0%" style="stop-color:#1f2937;stop-opacity:1" />
      <stop offset="50%" style="stop-color:#374151;stop-opacity:1" />
      <stop offset="100%" style="stop-color:#4b5563;stop-opacity:1" />
    </linearGradient>
    <linearGradient id="buildingGradient" x1="0%" y1="0%" x2="100%" y2="100%">
      <stop offset="0%" style="stop-color:#f9fafb;stop-opacity:1" />
      <stop offset="100%" style="stop-color:#e5e7eb;stop-opacity:1" />
    </linearGradient>
    <linearGradient id="screenGradient" x1="0%" y1="0%" x2="100%" y2="100%">
      <stop offset="0%" style="stop-color:#3b82f6;stop-opacity:1" />
      <stop offset="100%" style="stop-color:#1d4ed8;stop-opacity:1" />
    </linearGradient>
  </defs>
  
  <!-- Background -->
  <rect width="1200" height="600" fill="url(#heroGradient)"/>
  
  <!-- Modern Office Buildings -->
  <rect x="50" y="150" width="150" height="350" fill="url(#buildingGradient)" stroke="#d1d5db" stroke-width="2" rx="5"/>
  <rect x="220" y="100" width="120" height="400" fill="url(#buildingGradient)" stroke="#d1d5db" stroke-width="2" rx="5"/>
  <rect x="360" y="130" width="140" height="370" fill="url(#buildingGradient)" stroke="#d1d5db" stroke-width="2" rx="5"/>
  <rect x="520" y="80" width="110" height="420" fill="url(#buildingGradient)" stroke="#d1d5db" stroke-width="2" rx="5"/>
  
  <!-- Office Windows with Lights -->
  <rect x="70" y="180" width="20" height="25" fill="#fbbf24" opacity="0.9" rx="2"/>
  <rect x="100" y="180" width="20" height="25" fill="#3b82f6" opacity="0.9" rx="2"/>
  <rect x="130" y="180" width="20" height="25" fill="#fbbf24" opacity="0.9" rx="2"/>
  <rect x="160" y="180" width="20" height="25" fill="#3b82f6" opacity="0.9" rx="2"/>
  
  <rect x="240" y="140" width="18" height="22" fill="#10b981" opacity="0.9" rx="2"/>
  <rect x="265" y="140" width="18" height="22" fill="#fbbf24" opacity="0.9" rx="2"/>
  <rect x="290" y="140" width="18" height="22" fill="#3b82f6" opacity="0.9" rx="2"/>
  <rect x="315" y="140" width="18" height="22" fill="#10b981" opacity="0.9" rx="2"/>
  
  <!-- Professional Workers -->
  <!-- Worker 1 -->
  <circle cx="700" cy="450" r="30" fill="#fbbf24"/>
  <rect x="685" y="480" width="30" height="50" fill="#1f2937" rx="5"/>
  <rect x="675" y="530" width="15" height="30" fill="#374151"/>
  <rect x="710" y="530" width="15" height="30" fill="#374151"/>
  <!-- Briefcase -->
  <rect x="740" y="520" width="25" height="18" fill="#7c2d12" rx="3"/>
  <rect x="745" y="515" width="15" height="5" fill="#a3a3a3" rx="2"/>
  
  <!-- Worker 2 -->
  <circle cx="800" cy="450" r="30" fill="#f59e0b"/>
  <rect x="785" y="480" width="30" height="50" fill="#dc2626" rx="5"/>
  <rect x="775" y="530" width="15" height="30" fill="#374151"/>
  <rect x="810" y="530" width="15" height="30" fill="#374151"/>
  <!-- Laptop -->
  <rect x="830" y="520" width="35" height="20" fill="#374151" rx="2"/>
  <rect x="835" y="525" width="25" height="15" fill="url(#screenGradient)" rx="1"/>
  
  <!-- Worker 3 -->
  <circle cx="900" cy="450" r="30" fill="#8b5cf6"/>
  <rect x="885" y="480" width="30" height="50" fill="#059669" rx="5"/>
  <rect x="875" y="530" width="15" height="30" fill="#374151"/>
  <rect x="910" y="530" width="15" height="30" fill="#374151"/>
  <!-- Documents -->
  <rect x="920" y="520" width="20" height="25" fill="#ffffff" rx="2" stroke="#d1d5db"/>
  <rect x="925" y="525" width="10" height="2" fill="#374151"/>
  <rect x="925" y="530" width="10" height="2" fill="#374151"/>
  <rect x="925" y="535" width="10" height="2" fill="#374151"/>
  
  <!-- European Flags -->
  <!-- Germany Flag -->
  <rect x="950" y="80" width="60" height="40" fill="#000000"/>
  <rect x="950" y="93" width="60" height="14" fill="#dd0000"/>
  <rect x="950" y="107" width="60" height="13" fill="#ffce00"/>
  
  <!-- Netherlands Flag -->
  <rect x="1020" y="100" width="50" height="30" fill="#ae1c28"/>
  <rect x="1020" y="110" width="50" height="10" fill="#ffffff"/>
  <rect x="1020" y="120" width="50" height="10" fill="#21468b"/>
  
  <!-- Success Indicators -->
  <circle cx="1050" cy="200" r="25" fill="#10b981"/>
  <path d="M1040 200 L1048 208 L1060 188" stroke="#ffffff" stroke-width="4" fill="none"/>
  
  <circle cx="1100" cy="250" r="25" fill="#3b82f6"/>
  <text x="1100" y="258" text-anchor="middle" fill="#ffffff" font-size="18" font-weight="bold">€</text>
  
  <!-- Career Growth Arrow -->
  <path d="M 100 500 Q 400 450 700 480 Q 900 500 1100 450" stroke="#fbbf24" stroke-width="5" fill="none" opacity="0.8"/>
  <polygon points="1090,445 1100,450 1090,455" fill="#fbbf24" opacity="0.8"/>
  
  <!-- Technology Icons -->
  <rect x="650" y="100" width="40" height="30" fill="#374151" rx="5"/>
  <rect x="655" y="105" width="30" height="20" fill="#3b82f6" rx="2"/>
  <circle cx="670" cy="115" r="3" fill="#ffffff"/>
  
  <!-- Professional Charts/Graphs -->
  <rect x="750" y="120" width="80" height="60" fill="#ffffff" stroke="#d1d5db" stroke-width="2" rx="5"/>
  <rect x="760" y="150" width="8" height="20" fill="#10b981"/>
  <rect x="775" y="140" width="8" height="30" fill="#3b82f6"/>
  <rect x="790" y="135" width="8" height="35" fill="#fbbf24"/>
  <rect x="805" y="145" width="8" height="25" fill="#ef4444"/>
  
  <!-- Work Permit Document -->
  <rect x="850" y="150" width="60" height="80" fill="#ffffff" stroke="#d1d5db" stroke-width="2" rx="3"/>
  <rect x="860" y="160" width="40" height="3" fill="#374151"/>
  <rect x="860" y="170" width="30" height="2" fill="#6b7280"/>
  <rect x="860" y="175" width="35" height="2" fill="#6b7280"/>
  <rect x="860" y="180" width="25" height="2" fill="#6b7280"/>
  <circle cx="880" cy="200" r="15" fill="#dc2626" opacity="0.2"/>
  <text x="880" y="205" text-anchor="middle" fill="#dc2626" font-size="12" font-weight="bold">VISA</text>
  
  <!-- Decorative Elements -->
  <circle cx="100" cy="80" r="4" fill="#fbbf24" opacity="0.7"/>
  <circle cx="150" cy="60" r="3" fill="#10b981" opacity="0.7"/>
  <circle cx="200" cy="50" r="5" fill="#3b82f6" opacity="0.7"/>
  <circle cx="300" cy="40" r="3" fill="#ef4444" opacity="0.7"/>
  <circle cx="400" cy="30" r="4" fill="#8b5cf6" opacity="0.7"/>
  
  <!-- Company Logo Placeholder -->
  <rect x="400" y="30" width="400" height="35" fill="#ffffff" opacity="0.95" rx="8"/>
  <text x="600" y="52" text-anchor="middle" fill="#1f2937" font-size="20" font-weight="bold">EUROPEAN CAREER OPPORTUNITIES</text>
</svg>