<svg width="100" height="100" viewBox="0 0 100 100" xmlns="http://www.w3.org/2000/svg">
  <defs>
    <linearGradient id="docGradient" x1="0%" y1="0%" x2="100%" y2="100%">
      <stop offset="0%" style="stop-color:#059669;stop-opacity:1" />
      <stop offset="100%" style="stop-color:#047857;stop-opacity:1" />
    </linearGradient>
  </defs>
  
  <!-- Background Circle -->
  <circle cx="50" cy="50" r="45" fill="url(#docGradient)"/>
  
  <!-- Main Document -->
  <g transform="translate(50, 50)">
    <!-- Document Background -->
    <rect x="-15" y="-20" width="30" height="35" fill="#ffffff" rx="2"/>
    
    <!-- Document Header -->
    <rect x="-12" y="-17" width="24" height="3" fill="#1f2937" rx="1"/>
    
    <!-- Document Lines -->
    <rect x="-12" y="-12" width="20" height="1.5" fill="#6b7280" rx="0.5"/>
    <rect x="-12" y="-8" width="18" height="1.5" fill="#6b7280" rx="0.5"/>
    <rect x="-12" y="-4" width="22" height="1.5" fill="#6b7280" rx="0.5"/>
    <rect x="-12" y="0" width="16" height="1.5" fill="#6b7280" rx="0.5"/>
    <rect x="-12" y="4" width="20" height="1.5" fill="#6b7280" rx="0.5"/>
    
    <!-- Approval Stamp -->
    <g transform="translate(8, 8)">
      <circle cx="0" cy="0" r="8" fill="#dc2626" opacity="0.8"/>
      <text x="0" y="-2" text-anchor="middle" fill="#ffffff" font-family="Arial" font-size="4" font-weight="bold">APPROVED</text>
      <text x="0" y="3" text-anchor="middle" fill="#ffffff" font-family="Arial" font-size="3">✓</text>
    </g>
  </g>
  
  <!-- Processing Arrow -->
  <g transform="translate(25, 30)">
    <path d="M0 0 L15 0 L12 -3 M15 0 L12 3" stroke="#ffffff" stroke-width="2" fill="none"/>
    <text x="7" y="-6" text-anchor="middle" fill="#ffffff" font-family="Arial" font-size="6" font-weight="bold">PROCESS</text>
  </g>
  
  <!-- Small Icons -->
  <g transform="translate(20, 70)">
    <!-- Passport Icon -->
    <rect x="0" y="0" width="8" height="10" fill="#1f2937" rx="1"/>
    <rect x="1" y="1" width="6" height="4" fill="#fbbf24" rx="0.5"/>
    <rect x="1" y="6" width="6" height="1" fill="#ffffff" rx="0.2"/>
    <rect x="1" y="8" width="4" height="1" fill="#ffffff" rx="0.2"/>
  </g>
  
  <g transform="translate(35, 70)">
    <!-- CV Icon -->
    <rect x="0" y="0" width="6" height="8" fill="#ffffff" rx="0.5"/>
    <rect x="1" y="1" width="4" height="1" fill="#1f2937" rx="0.2"/>
    <rect x="1" y="3" width="3" height="0.5" fill="#6b7280" rx="0.1"/>
    <rect x="1" y="4.5" width="4" height="0.5" fill="#6b7280" rx="0.1"/>
    <rect x="1" y="6" width="2.5" height="0.5" fill="#6b7280" rx="0.1"/>
  </g>
  
  <g transform="translate(50, 70)">
    <!-- Certificate Icon -->
    <rect x="0" y="0" width="8" height="6" fill="#ffffff" rx="0.5"/>
    <circle cx="4" cy="3" r="2" fill="#fbbf24"/>
    <path d="M2.5 3 L3.5 4 L5.5 2" stroke="#1f2937" stroke-width="0.5" fill="none"/>
  </g>
  
</svg>